<svg id="Kaleb_Logo" data-name="Kaleb Logo" xmlns="http://www.w3.org/2000/svg" xmlns:xlink="http://www.w3.org/1999/xlink" viewBox="0 0 729.47 801.37"><defs><style>.cls-1,.cls-2,.cls-3{fill-rule:evenodd;}.cls-1{fill:url(#linear-gradient);}.cls-2{fill:url(#New_Gradient_Swatch_3);}.cls-3{fill:url(#New_Gradient_Swatch_3-2);}.cls-4{fill:url(#linear-gradient-2);}</style><linearGradient id="linear-gradient" x1="152.88" y1="467.32" x2="722.06" y2="467.32" gradientUnits="userSpaceOnUse"><stop offset="0" stop-color="#61dafb"/><stop offset="1" stop-color="#0071bc"/></linearGradient><linearGradient id="New_Gradient_Swatch_3" x1="241.82" y1="467.31" x2="722.06" y2="467.31" gradientUnits="userSpaceOnUse"><stop offset="0" stop-color="gray"/><stop offset="0.6" stop-color="#1a1a1a"/></linearGradient><linearGradient id="New_Gradient_Swatch_3-2" x1="389.09" y1="691.34" x2="882.35" y2="691.34" xlink:href="#New_Gradient_Swatch_3"/><linearGradient id="linear-gradient-2" x1="389.09" y1="701.46" x2="881.89" y2="701.46" xlink:href="#linear-gradient"/></defs><title>logo</title><path class="cls-1" d="M152.88,188s50.77,77.57,32.64,258.9-27.21,275,13.6,349.55S328.78,868,328.78,868s-85.23-171.25,18.14-295.15,249.34-153.12,311-237.74,65.29-175.78,63.93-209.53-10-58.93-10-58.93-22.21,96.71-136.46,172.26S430.35,302.36,368.69,372.37s-68.91,101.74-68.91,101.74,5.9-130.45-32.18-202S152.88,188,152.88,188Z" transform="translate(-152.88 -66.63)"/><path class="cls-2" d="M328.78,868s-85.23-171.25,18.14-295.15,249.34-153.12,311-237.74,65.29-175.78,63.93-209.53-10-58.93-10-58.93c2.7,12.08-.8,154.75-96.09,245.81s-301,110.81-359.06,298.18S328.78,868,328.78,868Z" transform="translate(-152.88 -66.63)"/><path class="cls-3" d="M389.09,570.82s56.22-50.37,133.29-1S638.44,709.83,743.62,730s138.73-62.46,138.73-62.46-26.29,192.4-204,164.2S475.23,673.58,452.57,625.22,410,571.83,389.09,570.82Z" transform="translate(-152.88 -66.63)"/><path class="cls-4" d="M881.89,670.37C877.8,694,843.32,857.91,678.34,831.73,500.62,803.52,475.23,673.58,452.57,625.22s-42.62-53.39-63.48-54.4C553.86,543.91,493.5,746.39,679.7,787.92,803.92,815.62,863.29,723.06,881.89,670.37Z" transform="translate(-152.88 -66.63)"/></svg>