<?xml version="1.0" standalone="no"?>
<!DOCTYPE svg PUBLIC "-//W3C//DTD SVG 20010904//EN"
 "http://www.w3.org/TR/2001/REC-SVG-20010904/DTD/svg10.dtd">
<svg version="1.0" xmlns="http://www.w3.org/2000/svg"
 width="1000.000000pt" height="1000.000000pt" viewBox="0 0 1000.000000 1000.000000"
 preserveAspectRatio="xMidYMid meet">
<metadata>
Created by potrace 1.11, written by Peter Selinger 2001-2013
</metadata>
<g transform="translate(0.000000,1000.000000) scale(0.100000,-0.100000)"
fill="#000000" stroke="none">
<path d="M7107 9301 c-4 -16 -22 -73 -42 -125 -178 -475 -525 -941 -985 -1322
-131 -109 -322 -242 -533 -372 -271 -167 -279 -172 -487 -285 -36 -19 -202
-104 -370 -189 -168 -85 -334 -172 -370 -193 -65 -38 -205 -131 -226 -150 -6
-5 -29 -23 -50 -40 -114 -88 -259 -232 -399 -395 -50 -58 -96 -111 -102 -118
-7 -7 -34 -41 -60 -75 -26 -34 -50 -64 -53 -67 -18 -14 -189 -252 -249 -347
-59 -94 -133 -230 -168 -313 -9 -19 -11 7 -11 115 1 143 -10 501 -16 532 -2
10 -7 59 -10 108 -4 50 -9 101 -11 115 -4 28 -12 93 -20 160 -3 25 -7 56 -10
70 -3 14 -7 41 -10 60 -5 31 -48 244 -60 295 -13 58 -76 259 -100 320 -158
401 -431 698 -820 890 -109 54 -304 126 -378 139 l-38 7 35 -68 c56 -113 144
-345 161 -427 3 -10 9 -33 15 -50 30 -93 93 -415 106 -546 2 -25 6 -52 9 -60
2 -8 7 -51 10 -95 4 -44 8 -96 10 -115 22 -216 22 -692 0 -975 -3 -38 -8 -101
-11 -140 -3 -38 -7 -86 -9 -105 -3 -19 -7 -64 -10 -100 -3 -36 -7 -81 -10
-100 -2 -19 -7 -64 -10 -100 -3 -36 -8 -81 -10 -100 -3 -19 -7 -64 -10 -100
-3 -36 -8 -90 -11 -120 -11 -117 -23 -239 -29 -310 -2 -25 -6 -79 -10 -120 -3
-41 -8 -97 -10 -125 -2 -27 -7 -79 -10 -115 -36 -404 -41 -1065 -10 -1320 3
-25 10 -74 16 -110 5 -36 11 -79 14 -97 2 -18 6 -40 9 -50 3 -10 7 -29 10 -43
45 -233 148 -496 263 -675 173 -269 438 -463 768 -561 125 -38 260 -63 378
-70 l109 -7 -15 29 c-101 199 -248 702 -283 974 -3 25 -7 56 -10 70 -19 117
-27 537 -11 675 38 342 141 662 298 922 120 200 230 334 464 568 181 181 323
304 530 460 117 88 435 303 561 380 27 16 76 45 109 65 68 41 632 373 684 402
19 11 61 37 93 59 33 21 62 39 65 39 5 0 299 199 329 223 290 234 408 357 555
582 263 401 423 809 509 1295 21 118 29 185 45 365 11 125 4 481 -10 505 -2 3
-7 35 -10 70 -4 36 -9 68 -11 71 -2 4 -6 24 -10 45 -9 60 -45 198 -53 207 -5
5 -11 -5 -14 -22z"/>
<path d="M4386 4509 c-77 -11 -214 -53 -295 -92 -63 -29 -205 -117 -199 -122
2 -1 28 -6 58 -9 128 -15 215 -55 309 -142 126 -117 231 -299 354 -614 120
-307 260 -606 312 -670 6 -8 14 -22 17 -30 11 -29 158 -232 232 -318 366 -429
896 -709 1556 -821 163 -28 218 -33 360 -36 157 -2 279 9 397 36 27 6 59 13
72 15 13 3 32 9 43 15 10 5 18 8 18 5 0 -7 148 52 224 90 403 200 720 610 895
1159 23 72 43 141 46 154 2 14 12 55 21 92 17 72 14 114 -5 66 -6 -16 -31 -59
-55 -95 -179 -273 -450 -449 -781 -506 -75 -13 -359 -15 -425 -3 -14 3 -45 8
-70 12 -160 24 -388 100 -556 186 -289 146 -465 288 -900 725 -155 156 -323
322 -375 370 -338 313 -634 482 -924 529 -89 15 -238 16 -329 4z"/>
</g>
</svg>
